<?xml version="1.0" encoding="utf-8"?>
<!-- Generator: Adobe Illustrator 16.0.0, SVG Export Plug-In . SVG Version: 6.00 Build 0)  -->
<!DOCTYPE svg PUBLIC "-//W3C//DTD SVG 1.1 Tiny//EN" "http://www.w3.org/Graphics/SVG/1.1/DTD/svg11-tiny.dtd">
<svg version="1.1" baseProfile="tiny" id="Layer_1" xmlns="http://www.w3.org/2000/svg" xmlns:xlink="http://www.w3.org/1999/xlink"
	 x="0px" y="0px" width="800px" height="1280px" viewBox="0 0 800 1280" xml:space="preserve">
<path fill-rule="evenodd" fill="#FCFCFC" d="M4.987,529.834c-0.136,1.41-0.273,2.82-0.407,4.232
	C4.67,532.651,4.112,531.172,4.987,529.834z"/>
<path fill-rule="evenodd" fill="#FCFCFC" d="M4.563,539.178c0.141,1.396,0.283,2.791,0.424,4.185
	C4.11,542.043,4.68,540.576,4.563,539.178z"/>
<rect x="1" fill="#FFFFFF" width="800" height="1280"/>
<g>
	<path fill="#33FF66" d="M247.932,428.506c-75.408,194.219-101.72-4.479-101.72-4.479s-37.977,228.422-105.263-44.692
		c0,0,26.683-7.996,35.925,0.872c4.518,20.694,8.981,205.268,55.577,28.223c0,0,14.037-54.613,28.684,2.155
		C161.134,410.584,184.275,564.885,247.932,428.506z"/>
	<g>
		<path fill="#33FF66" d="M228.271,473.473c0,0,0.203,0.246,0.596,0.723c0.389,0.479,0.989,1.178,1.717,2.119
			c0.368,0.468,0.78,0.991,1.232,1.566c0.227,0.288,0.463,0.589,0.71,0.902c0.261,0.292,0.532,0.597,0.814,0.914
			c0.559,0.624,1.16,1.294,1.8,2.009c0.636,0.713,1.231,1.501,1.995,2.262c0.745,0.762,1.531,1.564,2.354,2.406
			c0.409,0.416,0.828,0.841,1.256,1.276c0.457,0.401,0.923,0.812,1.399,1.23c0.472,0.415,0.954,0.839,1.444,1.271
			c0.491,0.426,0.943,0.909,1.49,1.299c1.046,0.814,2.129,1.657,3.249,2.528c1.155,0.767,2.347,1.559,3.574,2.374
			c1.256,0.731,2.568,1.413,3.878,2.127c2.733,1.185,5.528,2.429,8.567,2.975c1.481,0.401,3.038,0.498,4.566,0.735
			c1.568,0.026,3.122,0.161,4.719-0.019c3.17-0.233,6.411-0.787,9.634-1.975c6.449-2.281,12.862-6.412,18.47-11.845
			c2.771-2.742,5.38-5.762,7.593-9.013c0.525-0.821,1.052-1.646,1.581-2.472c0.469-0.841,0.939-1.684,1.411-2.529
			c0.403-0.851,0.857-1.691,1.247-2.537c0.323-0.849,0.758-1.696,1.02-2.532l0.423-1.25l0.109-0.312l0.028-0.078
			c0.032-0.097-0.188,0.603-0.08,0.252l0.064-0.223l0.256-0.891c0.341-1.188,0.684-2.379,1.026-3.571l0.257-0.895l0.032-0.112
			c-0.109,0.44,0.291-1.144-0.237,0.958l0.042-0.229l0.083-0.458l0.344-1.833l0.361-1.832l0.181-0.917l0.045-0.229l0.009-0.161
			l0.019-0.318c0.052-0.847,0.123-1.688,0.213-2.53l0.071-0.631c0.025-0.21,0.005-0.481,0.01-0.719l0.002-1.472l0.016-1.472
			l0.012-0.736l-0.07-0.734c-0.088-0.979-0.182-1.956-0.243-2.937c-0.005-0.493-0.098-0.977-0.182-1.461l-0.236-1.456
			c-0.156-0.971-0.262-1.953-0.556-2.896l-0.717-2.864c-0.294-0.938-0.656-1.855-0.968-2.788l-0.478-1.396l-0.616-1.338
			c-0.401-0.896-0.762-1.812-1.176-2.702c-0.988-1.69-1.78-3.504-2.951-5.073c-0.561-0.797-1.037-1.66-1.649-2.417
			c-0.613-0.756-1.235-1.5-1.821-2.277c-0.554-0.808-1.275-1.458-1.922-2.178l-0.987-1.064c-0.327-0.357-0.646-0.724-1.022-1.024
			c-1.461-1.251-2.819-2.636-4.42-3.691c-0.784-0.545-1.508-1.184-2.305-1.707c-0.813-0.505-1.622-1.008-2.427-1.509
			c-0.405-0.25-0.8-0.519-1.211-0.758l-1.277-0.627c-0.85-0.428-1.697-0.854-2.539-1.278l-0.158-0.081l-0.079-0.041
			c-0.263-0.097,0.272,0.087,0.178,0.054l-0.401-0.16l-0.801-0.32l-1.593-0.646c-0.813-0.29-1.533-0.591-2.376-0.884
			c-3.53-1.204-7.139-1.916-10.717-2.365c-7.167-0.836-14.248-0.158-20.602,1.583c-6.376,1.715-12.002,4.483-16.703,7.534
			c-2.358,1.528-4.409,3.202-6.347,4.77c-1.861,1.634-3.557,3.221-4.951,4.789c-2.796,3.125-4.9,5.817-6.177,7.761
			c-1.291,1.964-1.979,3.012-1.979,3.012l-1.334-0.496c0,0,0.115-0.294,0.338-0.866c0.234-0.567,0.53-1.43,1.011-2.516
			c0.941-2.178,2.447-5.337,4.86-9.069c1.184-1.88,2.674-3.842,4.363-5.921c1.748-2.03,3.732-4.151,6.042-6.221
			c4.632-4.104,10.513-8.099,17.628-10.937c7.083-2.858,15.363-4.586,24.144-4.368c8.762,0.199,18.01,2.354,26.501,6.813
			c1.055,0.568,2.113,1.139,3.176,1.712c1.048,0.599,2.027,1.321,3.049,1.98c2.084,1.271,3.92,2.907,5.85,4.444
			c3.65,3.303,7.16,6.918,9.961,11.114c1.543,2,2.684,4.27,3.993,6.441c0.574,1.13,1.089,2.293,1.637,3.441l0.809,1.729l0.656,1.796
			c0.427,1.201,0.896,2.391,1.287,3.605l0.987,3.707c0.375,1.227,0.553,2.497,0.773,3.758l0.325,1.894
			c0.111,0.631,0.228,1.262,0.256,1.903l0.285,3.833l0.069,0.958l-0.017,0.96l-0.035,1.92c0.053,2.553-0.329,5.13-0.609,7.692
			c-0.051,0.653-0.194,1.254-0.32,1.864l-0.38,1.828l-0.379,1.825l-0.095,0.456l-0.047,0.228c-0.068,0.268-0.039,0.138-0.063,0.227
			l-0.035,0.111l-0.279,0.888c-0.372,1.184-0.743,2.365-1.113,3.545l-0.278,0.884l-0.069,0.221l-0.091,0.26l-0.167,0.447
			l-0.669,1.785c-1.866,4.723-4.453,9.05-7.412,12.985c-2.965,3.936-6.309,7.499-9.933,10.617
			c-7.236,6.237-15.573,10.778-24.134,12.931c-4.277,1.084-8.609,1.445-12.758,1.253c-2.085-0.034-4.101-0.417-6.086-0.715
			c-1.939-0.514-3.884-0.885-5.67-1.623c-3.669-1.216-6.881-3.084-9.84-4.936c-1.404-1.038-2.784-2.037-4.076-3.063
			c-1.228-1.102-2.434-2.157-3.573-3.208c-1.065-1.123-2.096-2.21-3.091-3.26c-0.981-1.06-1.806-2.184-2.663-3.208
			c-0.42-0.519-0.832-1.027-1.235-1.524c-0.368-0.523-0.728-1.035-1.079-1.535c-0.7-1.002-1.367-1.957-2-2.864
			c-1.219-1.846-2.191-3.576-3.096-5.037c-0.461-0.73-0.837-1.424-1.162-2.066c-0.335-0.639-0.64-1.219-0.912-1.738
			c-1.09-2.078-1.672-3.187-1.672-3.187L228.271,473.473z"/>
	</g>
	<path fill="#66CCFF" d="M327.017,506.642v-16.483c9.457,4.334,16.364,6.948,20.72,7.847c4.356,0.899,8.396,1.348,12.111,1.348
		c6.748,0,12.076-1.836,15.977-5.509c3.906-3.669,5.857-8.068,5.857-13.188c0-3.855-1.021-7.42-3.062-10.695
		c-2.093-3.222-7.254-7.159-15.476-11.806l-8.119-4.674c-10.823-6.127-18.093-11.725-21.803-16.796
		c-3.716-5.071-5.573-10.696-5.573-16.875c0-5.546,1.474-10.747,4.42-15.607c2.946-4.86,6.9-8.666,11.865-11.408
		c4.96-2.747,11.214-4.121,18.751-4.121c9.076,0,18.653,1.507,28.742,4.518v15.216c-8.774-3.435-14.795-5.508-18.065-6.221
		c-3.271-0.716-6.524-1.072-9.767-1.072c-6.808,0-11.846,1.769-15.116,5.306c-3.271,3.537-4.904,7.158-4.904,10.855
		c0,2.535,0.772,5.106,2.322,7.726c1.545,2.611,3.626,4.857,6.241,6.729c2.617,1.879,6.202,4.113,10.766,6.699l8.436,4.752
		c10.928,6.179,18.224,11.833,21.883,16.956c3.662,5.176,5.492,11.117,5.492,17.825c0,9.137-3.485,17.06-10.463,23.768
		c-6.979,6.704-17.255,10.061-30.835,10.061c-4.19,0-8.252-0.276-12.175-0.835C341.313,510.406,335.243,508.966,327.017,506.642z"/>
	<path fill="#66CCFF" d="M491.333,502.519c-4.708,2.433-8.903,4.226-12.599,5.392c-3.7,1.159-7.532,2.015-11.512,2.555
		c-3.982,0.545-8.297,0.815-12.951,0.815c-19.333,0-33.483-5.708-42.443-17.136c-8.975-11.422-13.456-25.769-13.456-43.029
		c0-17.625,4.65-32.082,13.953-43.372c9.308-11.299,23.571-16.945,42.799-16.945c10.235,0,22.251,1.677,36.052,5.039v15.272
		c-11.579-3.978-19.549-6.329-23.918-7.053c-4.369-0.726-8.517-1.085-12.446-1.085c-13.749,0-23.706,4.663-29.884,13.99
		c-6.177,9.332-9.265,20.77-9.265,34.31c0,14.112,3.552,25.521,10.661,34.229c7.107,8.711,17.168,13.064,30.195,13.064
		c3.618,0,7.223-0.321,10.819-0.969c3.589-0.643,7.169-1.602,10.734-2.868c3.567-1.264,7.987-3.321,13.261-6.162V502.519z"/>
	<path fill="#66CCFF" d="M574.086,511.999V393.427h31.647c11.26,0,19.33,1.123,24.227,3.362c4.891,2.244,8.652,5.69,11.266,10.337
		c2.614,4.652,3.929,10.444,3.929,17.382c0,8.12-1.731,15.229-5.187,21.313c-3.46,6.092-9.017,10.796-16.667,14.101
		c-7.653,3.311-16.08,4.969-25.29,4.969h-7.256v47.109H574.086z M590.755,452.153h6.545c10.745,0,18.457-2.536,23.131-7.612
		c4.68-5.077,7.018-11.352,7.018-18.827c0-4.055-0.746-7.49-2.238-10.293c-1.49-2.803-3.875-5.082-7.167-6.81
		c-3.297-1.742-9.065-2.608-17.349-2.608h-9.94V452.153z"/>
	<path fill="#66CCFF" d="M648.282,511.999V393.427h66.418v12.575h-49.593v38.058h41.578v12.418h-41.578v42.94h53.036v12.581H648.282
		z"/>
	<g>
		<path fill="#66CCFF" d="M566.33,393.497v118.572h-31.645c-11.257,0-19.329-1.124-24.227-3.362
			c-4.893-2.247-8.649-5.689-11.266-10.345c-2.611-4.645-3.929-10.442-3.929-17.376c0-8.123,1.726-15.222,5.187-21.316
			c3.465-6.086,9.013-10.791,16.669-14.096c7.647-3.319,16.081-4.971,25.285-4.971h7.255v-47.106H566.33z M549.661,453.344h-6.551
			c-10.739,0-18.446,2.535-23.123,7.606c-4.679,5.082-7.015,11.354-7.015,18.832c0,4.053,0.743,7.485,2.233,10.293
			c1.494,2.803,3.881,5.077,7.173,6.811c3.291,1.736,9.064,2.606,17.344,2.606h9.938V453.344z"/>
		<path fill="#66CCFF" d="M541.615,401.66c4.516,0.753,12.751,3.176,24.715,7.288v-15.78c-7.822-1.906-23.251-2.943-36.704-3.111
			C518.555,389.919,539.773,401.354,541.615,401.66z"/>
	</g>
	<path fill-rule="evenodd" fill="#33FF66" d="M675.606,526.546c23.287-9.83,43.679-23.887,60.87-42.427
		c15.783-17.022,26.327-36.832,30.775-59.698c2.077-10.704,2.722-21.505,2.146-32.419c-1.05-19.944-6.329-38.63-16.15-56.015
		c-9.92-17.562-23.185-32.251-38.909-44.777c-14.014-11.164-29.5-19.65-46.428-25.521c-11.835-4.109-24-6.805-36.422-8.319
		c-10.053-1.223-20.16-1.739-30.278-1.31c-11.353,0.486-22.494,2.468-33.508,5.166c-23.732,5.811-46.391,14.644-68.676,24.513
		c-20.779,9.203-41.046,19.456-61.186,29.976c-24.486,12.798-49.093,25.365-74.106,37.122c-15.168,7.113-30.398,14.101-46.351,19.34
		c-10.388,3.413-21.014,5.87-31.826,7.588c-13.972,2.203-28.019,3.11-42.125,2.419c-11.508-0.562-22.755-2.911-33.71-6.453
		c-13.27-4.299-26.236-9.327-37.961-17.071c-1.074-0.702-2.073-1.523-2.959-2.582c2.312,0.648,4.624,1.285,6.929,1.944
		c11.916,3.407,24.005,6.032,36.287,7.674c10.426,1.383,20.892,1.944,31.377,0.697c13.615-1.609,26.841-4.953,39.886-9.078
		c21.259-6.719,41.803-15.279,62.068-24.535c24.37-11.129,48.125-23.497,71.773-36.088c20.614-10.977,41.509-21.389,62.853-30.886
		c19.121-8.517,38.522-16.345,58.547-22.528c12.247-3.786,24.657-6.856,37.319-8.854c7.066-1.12,14.201-1.617,21.34-1.993
		c5.584-0.294,11.152-1.037,16.745-0.913c28.253,0.619,54.656,7.888,78.965,22.342c25.245,15.011,46.242,34.634,62.782,58.92
		c11.581,16.997,19.301,35.656,22.941,55.924c2.141,11.897,2.744,23.908,2.044,35.989c-0.85,14.56-3.586,28.699-8.754,42.346
		c-7.369,19.453-18.964,36.049-34.118,50.188C713.814,519.573,653.326,535.948,675.606,526.546z"/>
</g>
<g>
	<path fill="#666666" d="M311.577,1152.379l-6.25-18.602h-0.35l-6.601,18.602h-4.15l-10.2-32.052h4l0.55,3.1l7.8,24.502h0.35
		l6.9-19.501l-2.7-8.101h4.1l0.75,3.45l7.9,24.151h0.3l8.701-24.302l0.75-3.3h3.8l-11.501,32.052H311.577z"/>
	<path fill="#666666" d="M356.727,1135.728c0,5.468-1.25,9.676-3.75,12.626c-2.5,2.95-6.067,4.426-10.7,4.426
		c-4.334,0-7.676-1.4-10.026-4.2c-2.35-2.801-3.525-6.784-3.525-11.951c0-5.334,1.242-9.434,3.726-12.301s6.025-4.3,10.625-4.3
		c4.4,0,7.775,1.35,10.125,4.05S356.727,1130.661,356.727,1135.728z M335.25,1146.328c1.617,2.2,4.059,3.301,7.326,3.301
		c6.667,0,10-4.384,10-13.151c0-4.467-0.808-7.783-2.425-9.95c-1.617-2.167-4.059-3.25-7.326-3.25c-6.667,0-10,4.3-10,12.9
		C332.826,1140.745,333.634,1144.128,335.25,1146.328z"/>
	<path fill="#666666" d="M388.477,1135.728c0,5.468-1.25,9.676-3.75,12.626c-2.5,2.95-6.067,4.426-10.7,4.426
		c-4.334,0-7.676-1.4-10.026-4.2c-2.35-2.801-3.525-6.784-3.525-11.951c0-5.334,1.242-9.434,3.726-12.301s6.025-4.3,10.625-4.3
		c4.4,0,7.775,1.35,10.125,4.05S388.477,1130.661,388.477,1135.728z M367,1146.328c1.617,2.2,4.059,3.301,7.326,3.301
		c6.667,0,10-4.384,10-13.151c0-4.467-0.808-7.783-2.425-9.95c-1.617-2.167-4.059-3.25-7.326-3.25c-6.667,0-10,4.3-10,12.9
		C364.576,1140.745,365.384,1144.128,367,1146.328z"/>
	<path fill="#666666" d="M410.175,1125.428l-0.7,0.199c-0.967-0.733-1.992-1.3-3.075-1.7c-1.083-0.399-2.159-0.6-3.226-0.6
		c-1.233,0-2.308,0.25-3.225,0.75c-0.917,0.5-1.617,1.15-2.1,1.95s-0.725,1.634-0.725,2.5c0,0.9,0.275,1.691,0.825,2.375
		c0.55,0.684,1.242,1.275,2.075,1.775s1.967,1.1,3.4,1.8c1.8,0.834,3.25,1.608,4.351,2.325s2.042,1.625,2.825,2.726
		c0.783,1.1,1.175,2.434,1.175,4c0,1.667-0.45,3.2-1.35,4.601c-0.9,1.399-2.167,2.517-3.8,3.35c-1.633,0.834-3.5,1.25-5.6,1.25
		c-1.4,0-2.858-0.191-4.375-0.574c-1.517-0.384-2.925-0.942-4.225-1.676l0.5-4.1l0.55-0.25c1.167,1.133,2.458,1.975,3.875,2.524
		c1.417,0.551,2.775,0.825,4.075,0.825c1.267,0,2.392-0.25,3.375-0.75s1.733-1.167,2.25-2s0.775-1.717,0.775-2.65
		c0-1.399-0.533-2.524-1.6-3.375c-1.066-0.85-2.684-1.775-4.85-2.775c-1.767-0.866-3.184-1.642-4.25-2.325
		c-1.066-0.683-1.983-1.566-2.75-2.649c-0.767-1.084-1.15-2.409-1.15-3.976c0-1.634,0.441-3.134,1.325-4.5
		c0.883-1.367,2.117-2.442,3.7-3.226c1.583-0.783,3.392-1.175,5.425-1.175c2.3,0,4.684,0.5,7.151,1.5L410.175,1125.428z"/>
	<path fill="#666666" d="M437.975,1126.127l-0.45,0.101c-2.233-1.867-4.8-2.801-7.701-2.801c-3.167,0-5.6,1.092-7.3,3.275
		s-2.55,5.376-2.55,9.576c0,4.233,0.85,7.467,2.55,9.7s4.1,3.351,7.2,3.351c1.467,0,2.925-0.267,4.375-0.801
		c1.45-0.533,2.775-1.283,3.975-2.25l0.5,0.25l-0.35,3.801c-2.9,1.6-5.85,2.399-8.85,2.399c-4.3,0-7.634-1.392-10.001-4.175
		c-2.367-2.783-3.55-6.759-3.55-11.926c0-5.301,1.233-9.384,3.701-12.251c2.467-2.866,5.967-4.3,10.5-4.3
		c3.367,0,6.284,0.8,8.75,2.4L437.975,1126.127z"/>
	<path fill="#666666" d="M463.625,1152.379l-0.75-3.2l-1.8-5.5l-7.201-0.15l-6.5,0.15l-1.95,5.3l-0.8,3.4h-4l11.75-32.052h4.65
		l10.701,32.052H463.625z M454.774,1124.478h-0.35l-5.8,15.801l5.6,0.1l5.75-0.1L454.774,1124.478z"/>
	<path fill="#666666" d="M493.074,1129.678c0,3.566-1.059,6.367-3.175,8.4s-5.042,3.05-8.775,3.05h-3.8v1.25l0.2,10.001h-4.05
		l0.25-9.65l-0.25-22.401l9.8-0.05c3.134,0,5.55,0.808,7.25,2.425S493.074,1126.644,493.074,1129.678z M488.974,1130.027
		c0-4.134-2.2-6.283-6.601-6.45l-4.85,0.15l-0.15,14.051l5.25,0.1c2.067-0.333,3.642-1.167,4.726-2.5
		C488.432,1134.045,488.974,1132.261,488.974,1130.027z"/>
	<path fill="#666666" d="M517.474,1152.379h-18.001l0.25-9.65l-0.25-22.401h18.051l0.2,0.399l-0.3,3.101l-7.551-0.15l-6.35,0.101
		l-0.1,10.5l6,0.101l5.3-0.15l0.3,0.351l-0.35,3.1l-5.6-0.1l-5.701,0.05l-0.05,4.75l0.15,6.65l6.351,0.051l7.7-0.2l0.25,0.399
		L517.474,1152.379z"/>
	<path fill="#666666" d="M212.427,1195.078c0,0.566-0.1,2.616-0.3,6.15c-0.2,3.533-0.3,5.6-0.3,6.2c0,0.733,0.117,1.241,0.35,1.525
		c0.233,0.283,0.633,0.425,1.2,0.425c0.5,0,1.067-0.101,1.7-0.3l0.4,0.35l-0.4,2.25c-0.967,0.566-1.917,0.9-2.85,1
		c-1.033-0.1-1.858-0.467-2.475-1.1c-0.617-0.634-0.942-1.5-0.975-2.601h-0.35c-1.8,1.834-3.583,3.084-5.35,3.75
		c-2.233,0-3.976-0.558-5.226-1.675c-1.25-1.116-1.875-2.642-1.875-4.575c0-1.467,0.392-2.634,1.175-3.5
		c0.783-0.867,1.941-1.483,3.475-1.851l8.101-1.899l0.05-3.251c0-1.3-0.342-2.3-1.025-3c-0.684-0.7-1.659-1.05-2.925-1.05
		c-1.133,0-2.267,0.267-3.4,0.8c-1.133,0.533-2.35,1.367-3.65,2.5l-0.4-0.199l-0.5-2.851c2.767-2.066,5.617-3.101,8.551-3.101
		c2.167,0,3.875,0.534,5.125,1.601C211.802,1191.744,212.427,1193.211,212.427,1195.078z M199.976,1204.354
		c-0.3,0.35-0.45,0.875-0.45,1.575c0,1.1,0.308,1.958,0.925,2.575c0.617,0.616,1.442,0.925,2.476,0.925c1.833,0,3.7-1.184,5.6-3.55
		l0.15-4.101l-7.25,1.75C200.759,1203.729,200.276,1204.003,199.976,1204.354z"/>
	<path fill="#666666" d="M253.826,1212.379l-6.25-18.602h-0.35l-6.601,18.602h-4.15l-10.2-32.052h4l0.55,3.1l7.8,24.502h0.35
		l6.9-19.501l-2.7-8.101h4.1l0.75,3.45l7.9,24.151h0.3l8.701-24.302l0.75-3.3h3.8l-11.501,32.052H253.826z"/>
	<path fill="#666666" d="M290.026,1200.628c0,3.867-0.9,6.859-2.7,8.976c-1.8,2.117-4.367,3.176-7.701,3.176
		c-3.133,0-5.559-1.009-7.275-3.025s-2.575-4.858-2.575-8.525c0-3.867,0.908-6.859,2.725-8.976c1.817-2.117,4.392-3.176,7.726-3.176
		c3.1,0,5.509,1.009,7.226,3.025S290.026,1196.961,290.026,1200.628z M273.525,1200.328c0,3.2,0.542,5.601,1.625,7.2
		c1.083,1.601,2.658,2.4,4.725,2.4c2.1,0,3.7-0.7,4.8-2.1c1.1-1.4,1.65-3.501,1.65-6.301c0-3.167-0.542-5.567-1.625-7.2
		c-1.083-1.634-2.658-2.45-4.725-2.45c-2.1,0-3.7,0.717-4.8,2.149C274.075,1195.461,273.525,1197.562,273.525,1200.328z"/>
	<path fill="#666666" d="M314.576,1200.628c0,3.867-0.9,6.859-2.7,8.976c-1.8,2.117-4.367,3.176-7.701,3.176
		c-3.133,0-5.559-1.009-7.275-3.025s-2.575-4.858-2.575-8.525c0-3.867,0.908-6.859,2.725-8.976c1.817-2.117,4.392-3.176,7.726-3.176
		c3.1,0,5.509,1.009,7.226,3.025S314.576,1196.961,314.576,1200.628z M298.075,1200.328c0,3.2,0.542,5.601,1.625,7.2
		c1.083,1.601,2.658,2.4,4.725,2.4c2.1,0,3.7-0.7,4.8-2.1c1.1-1.4,1.65-3.501,1.65-6.301c0-3.167-0.542-5.567-1.625-7.2
		c-1.083-1.634-2.658-2.45-4.725-2.45c-2.1,0-3.7,0.717-4.8,2.149C298.625,1195.461,298.075,1197.562,298.075,1200.328z"/>
	<path fill="#666666" d="M338.075,1207.479c0.033,0.7,0.15,1.191,0.35,1.476c0.2,0.283,0.567,0.425,1.1,0.425s1.1-0.101,1.7-0.3
		l0.4,0.35l-0.4,2.25c-0.9,0.566-1.833,0.9-2.8,1c-1.034-0.1-1.842-0.45-2.425-1.05s-0.941-1.417-1.075-2.45h-0.35
		c-1,0.867-1.9,1.559-2.7,2.075c-0.8,0.517-1.717,0.975-2.75,1.375c-3.3,0-5.833-1.009-7.6-3.025
		c-1.767-2.017-2.65-4.892-2.65-8.625c0-3.768,0.983-6.692,2.95-8.775c1.967-2.084,4.684-3.126,8.15-3.126
		c1.567,0,3.034,0.167,4.4,0.5l-0.05-11.95l3.95-0.351l-0.35,25.052L338.075,1207.479z M322.625,1200.328
		c0,2.834,0.558,5.033,1.675,6.601c1.117,1.566,2.659,2.35,4.625,2.35c0.933,0,1.842-0.233,2.725-0.699
		c0.883-0.467,1.809-1.251,2.775-2.351l0.1-3.601l-0.15-9.5c-1.767-0.834-3.384-1.25-4.85-1.25c-2.134,0-3.817,0.725-5.05,2.175
		S322.625,1197.595,322.625,1200.328z"/>
	<path fill="#666666" d="M351.274,1194.928l5.4,0.101l5.2-0.15l0.3,0.4l-0.35,3.05l-5.55-0.15l-5.051,0.051l-0.05,4.149l0.2,10.001
		h-4.05l0.25-9.65l-0.25-22.401h17.051l0.3,0.399l-0.35,3.2l-7.351-0.25l-5.6,0.101L351.274,1194.928z"/>
	<path fill="#666666" d="M372.474,1212.379h-3.95l0.3-9.751l-0.25-25.001l3.95-0.351l-0.3,25.052L372.474,1212.379z"/>
	<path fill="#666666" d="M395.225,1195.078c0,0.566-0.1,2.616-0.3,6.15c-0.2,3.533-0.3,5.6-0.3,6.2c0,0.733,0.117,1.241,0.35,1.525
		c0.233,0.283,0.633,0.425,1.2,0.425c0.5,0,1.067-0.101,1.7-0.3l0.4,0.35l-0.4,2.25c-0.967,0.566-1.917,0.9-2.85,1
		c-1.033-0.1-1.858-0.467-2.475-1.1c-0.617-0.634-0.942-1.5-0.975-2.601h-0.35c-1.8,1.834-3.583,3.084-5.35,3.75
		c-2.233,0-3.976-0.558-5.226-1.675c-1.25-1.116-1.875-2.642-1.875-4.575c0-1.467,0.392-2.634,1.175-3.5
		c0.783-0.867,1.941-1.483,3.475-1.851l8.101-1.899l0.05-3.251c0-1.3-0.342-2.3-1.025-3c-0.684-0.7-1.659-1.05-2.925-1.05
		c-1.133,0-2.267,0.267-3.4,0.8c-1.133,0.533-2.35,1.367-3.65,2.5l-0.4-0.199l-0.5-2.851c2.767-2.066,5.617-3.101,8.551-3.101
		c2.167,0,3.875,0.534,5.125,1.601C394.6,1191.744,395.225,1193.211,395.225,1195.078z M382.774,1204.354
		c-0.3,0.35-0.45,0.875-0.45,1.575c0,1.1,0.308,1.958,0.925,2.575c0.617,0.616,1.442,0.925,2.476,0.925c1.833,0,3.7-1.184,5.6-3.55
		l0.15-4.101l-7.25,1.75C383.557,1203.729,383.074,1204.003,382.774,1204.354z"/>
	<path fill="#666666" d="M407.923,1212.379h-3.95l0.3-9.751l-0.25-25.001l3.95-0.351l-0.3,25.052L407.923,1212.379z
		 M422.174,1211.679v0.45c-0.633,0.2-1.325,0.358-2.075,0.475c-0.75,0.117-1.242,0.192-1.475,0.226l-0.5-0.2
		c-3.767-4.467-6.934-8.567-9.5-12.301v-0.35l7.15-8.451l1.3-2.05h4.5l-9,10.501
		C414.874,1203.078,418.074,1206.979,422.174,1211.679z"/>
	<path fill="#666666" d="M427.573,1200.878c0,2.801,0.633,4.95,1.9,6.45c1.267,1.501,3.066,2.251,5.4,2.251
		c1.167,0,2.333-0.192,3.5-0.575c1.167-0.384,2.233-0.925,3.2-1.625l0.4,0.3l-0.6,3.4c-2.333,1.133-4.667,1.7-7,1.7
		c-3.267,0-5.833-1.042-7.7-3.126c-1.867-2.083-2.8-4.941-2.8-8.575c0-3.667,0.934-6.584,2.8-8.75
		c1.867-2.167,4.383-3.251,7.55-3.251c2.667,0,4.734,0.759,6.201,2.275c1.466,1.517,2.2,3.625,2.2,6.325c0,0.9-0.066,1.75-0.2,2.551
		l-0.5,0.5l-14.351,0.05V1200.878z M427.823,1198.078l11.051-0.2l0.1-0.7c0-1.7-0.409-3.008-1.225-3.925
		c-0.817-0.917-1.992-1.375-3.525-1.375c-1.667,0-3.059,0.541-4.175,1.625C428.932,1194.586,428.19,1196.111,427.823,1198.078z"/>
	<path fill="#666666" d="M464.523,1212.379l-10.701-32.052h4.1l0.75,3.25l8.15,24.752h0.3l9-24.552l0.8-3.45h4l-11.75,32.052
		H464.523z"/>
	<path fill="#666666" d="M484.873,1200.878c0,2.801,0.633,4.95,1.9,6.45c1.267,1.501,3.066,2.251,5.4,2.251
		c1.167,0,2.333-0.192,3.5-0.575c1.167-0.384,2.233-0.925,3.2-1.625l0.4,0.3l-0.6,3.4c-2.333,1.133-4.667,1.7-7,1.7
		c-3.267,0-5.833-1.042-7.7-3.126c-1.867-2.083-2.8-4.941-2.8-8.575c0-3.667,0.934-6.584,2.8-8.75
		c1.867-2.167,4.383-3.251,7.55-3.251c2.667,0,4.734,0.759,6.201,2.275c1.466,1.517,2.2,3.625,2.2,6.325c0,0.9-0.066,1.75-0.2,2.551
		l-0.5,0.5l-14.351,0.05V1200.878z M485.123,1198.078l11.051-0.2l0.1-0.7c0-1.7-0.409-3.008-1.225-3.925
		c-0.817-0.917-1.992-1.375-3.525-1.375c-1.667,0-3.059,0.541-4.175,1.625C486.231,1194.586,485.49,1196.111,485.123,1198.078z"/>
	<path fill="#666666" d="M519.624,1193.628c-0.667-0.767-1.65-1.15-2.95-1.15c-2.1,0-4.367,1.184-6.8,3.551v6.3l0.2,10.051h-3.95
		l0.25-9.7l-0.2-12.951l3.75-0.35v3.35h0.3c2.067-1.833,4.184-3.017,6.35-3.55c2.5,0,4.409,0.583,5.726,1.75s1.958,2.833,1.925,5
		l-0.1,6.501l0.2,9.95h-4l0.25-15.551C520.607,1195.461,520.291,1194.395,519.624,1193.628z"/>
	<path fill="#666666" d="M543.173,1208.629l-0.4,2.6c-1.8,0.834-3.467,1.317-5,1.45c-1.9-0.366-3.267-1.066-4.1-2.1
		c-0.833-1.034-1.25-2.534-1.25-4.501l0.15-3.55l-0.05-10.351h-3.15l-0.2-0.3l0.25-2.351h3.05v-3.7l3.45-1.5l0.4,0.35l-0.1,4.851
		h6.801l0.2,0.3l-0.25,2.351h-6.75l-0.25,13.551c-0.033,1.333,0.2,2.267,0.7,2.8c0.5,0.534,1.317,0.801,2.45,0.801
		c1.1,0,2.3-0.334,3.6-1L543.173,1208.629z"/>
	<path fill="#666666" d="M567.973,1211.679c-0.967,0.566-1.917,0.9-2.85,1c-0.967-0.133-1.742-0.475-2.325-1.024
		c-0.583-0.551-0.992-1.376-1.225-2.476h-0.3c-2,1.8-4.067,2.967-6.2,3.5c-2.467,0-4.342-0.583-5.625-1.75
		c-1.283-1.167-1.908-2.833-1.875-5l0.05-6.351l-0.15-9.851l4-0.35l-0.3,15.601c0,1.366,0.325,2.434,0.975,3.2
		c0.65,0.767,1.608,1.15,2.875,1.15c2.066,0,4.133-1,6.2-3.001v-16.601l3.8-0.35l-0.25,18.101c0,0.7,0.108,1.191,0.325,1.476
		c0.217,0.283,0.592,0.425,1.125,0.425c0.533,0,1.117-0.101,1.75-0.3l0.4,0.35L567.973,1211.679z"/>
	<path fill="#666666" d="M584.671,1193.378l-0.45,0.149c-0.567-0.166-1.184-0.25-1.85-0.25c-1.1,0-2.108,0.442-3.025,1.325
		c-0.917,0.884-1.825,2.292-2.725,4.226l-0.05,3.5l0.25,10.051h-3.95l0.25-9.7l-0.2-12.951l3.75-0.35l-0.05,4.7h0.3
		c0.934-1.667,1.967-2.858,3.101-3.575c1.133-0.717,2.25-1.075,3.35-1.075c0.4,0,0.833,0.033,1.3,0.1V1193.378z"/>
	<path fill="#666666" d="M590.771,1200.878c0,2.801,0.633,4.95,1.9,6.45c1.267,1.501,3.066,2.251,5.4,2.251
		c1.167,0,2.333-0.192,3.5-0.575c1.167-0.384,2.233-0.925,3.2-1.625l0.4,0.3l-0.6,3.4c-2.333,1.133-4.667,1.7-7,1.7
		c-3.267,0-5.833-1.042-7.7-3.126c-1.867-2.083-2.8-4.941-2.8-8.575c0-3.667,0.934-6.584,2.8-8.75
		c1.867-2.167,4.383-3.251,7.55-3.251c2.667,0,4.734,0.759,6.201,2.275c1.466,1.517,2.2,3.625,2.2,6.325c0,0.9-0.066,1.75-0.2,2.551
		l-0.5,0.5l-14.351,0.05V1200.878z M591.021,1198.078l11.051-0.2l0.1-0.7c0-1.7-0.409-3.008-1.225-3.925
		c-0.817-0.917-1.992-1.375-3.525-1.375c-1.667,0-3.059,0.541-4.175,1.625C592.13,1194.586,591.388,1196.111,591.021,1198.078z"/>
</g>
</svg>
