<?xml version="1.0" encoding="utf-8"?>
<!-- Generator: Adobe Illustrator 16.0.0, SVG Export Plug-In . SVG Version: 6.00 Build 0)  -->
<!DOCTYPE svg PUBLIC "-//W3C//DTD SVG 1.1//EN" "http://www.w3.org/Graphics/SVG/1.1/DTD/svg11.dtd">
<svg version="1.1" id="Layer_1" xmlns="http://www.w3.org/2000/svg" xmlns:xlink="http://www.w3.org/1999/xlink" x="0px" y="0px"
	 width="800px" height="1280px" viewBox="0 0 800 1280" enable-background="new 0 0 800 1280" xml:space="preserve">
<rect x="2" y="2" fill="#666666" width="800" height="1280"/>
<path fill="#F7941E" d="M801.214,787.771c-1.088-0.025-1.983-0.073-2.875-0.063c-2.77,0.045-4.486-1.263-5.572-3.825
	c-2.682-6.339-4.639-12.85-5.474-19.694c-1.638-13.434,0.829-26.351,4.903-39.057c1.948-6.079,3.943-12.146,6.058-18.167
	c3.104-8.844,4.522-17.992,4.731-27.294c0.144-6.526,0.605-13.086-0.283-19.601c-0.5-3.676-0.563-3.667-4.094-3.271
	c-3.185,0.356-3.187,0.356-4.003-2.698c-0.194-0.732-0.342-1.479-0.545-2.21c-3.895-13.993-12.782-21.961-27.508-23.277
	c-26.71-2.394-43.928,14.205-48.872,33.499c-1.84,7.183-1.706,14.459-0.815,21.75c0.127,1.057,0.451,2.104,0.458,3.158
	c0.036,4.581,1.507,8.364,4.696,11.884c4.313,4.753,5.564,10.529,4.06,16.999c-2.947,12.648-8.789,23.566-18.281,32.505
	c-1.025,0.971-3.701,1.749-1.02,3.945c0.551,0.451-0.497,1.271-0.921,1.832c-6.556,8.675-5.813,17.539-0.566,26.416
	c3.718,6.288,9.058,10.998,15.175,14.882c24.608,15.627,56.287,13.7,78.776-4.81C800.021,790.039,801.132,789.623,801.214,787.771z"
	/>
<path fill="#F7941E" d="M695.269,751.843c-1.967,0.2-3.407,0.288-4.827,0.506c-1.359,0.209-2.706,0.332-4.082,0.149
	c-3.736-0.5-4.4-1.375-3.601-5.119c1.395-6.54,2.625-13.101,3.435-19.74c0.903-7.411,1.232-14.815,0.451-22.276
	c-0.478-4.502-2.281-8.095-5.909-10.841c-3.393-2.566-6.669-5.287-10.037-7.887c-0.829-0.641-1.766-1.307-2.748-1.555
	c-12.372-3.104-24.718-6.443-37.624-6.298c-2.421,0.026-4.879,0.239-7.246,0.723c-5.921,1.21-8.479,4.828-7.879,10.813
	c0.373,3.706,1.925,7.017,3.613,10.253c2.748,5.269,5.939,10.295,9.779,14.813c4.834,5.688,6.969,12.36,8.071,19.509
	c0.488,3.153,1.023,6.322,1.168,9.501c0.31,6.83,3.274,12.611,7.021,18.005c5.338,7.679,12.216,9.724,21.174,6.745
	c2.896-0.964,5.661-2.224,8.289-3.747c5.784-3.355,11.526-6.773,17.261-10.217C692.813,754.438,694.229,753.809,695.269,751.843z"/>
<path fill="#FCE0BE" d="M800.486,831.12c-0.267,0.925-0.533,1.85-0.803,2.774c0.354,0.321,0.702,0.641,1.053,0.963
	c0.854-1.176,0.674-2.529,0.664-3.854C801.047,830.666,800.74,830.685,800.486,831.12z"/>
<path fill="#F9AA4D" d="M802.141,828.229c0.894-0.832,0.979-1.777,0.312-3.037c-0.902,0.937-1.345,1.907-1.263,3.117
	C801.543,828.717,801.857,828.669,802.141,828.229z"/>
<path fill="#FBC586" d="M802.141,828.229c-0.316,0.028-0.633,0.057-0.95,0.081c-0.234,0.938-0.47,1.875-0.703,2.811
	c0.305-0.039,0.606-0.075,0.914-0.115C802.389,830.277,802.096,829.208,802.141,828.229z"/>
<g>
	<path fill="#F7941E" d="M662.781,1124.26c-4.021,2.262-8.283,1.601-12.533,1.026c-1.748-0.239-3.479-0.62-5.23-0.834
		c-0.782-0.094-1.842-0.354-2.216,0.642c-0.421,1.115,0.58,1.646,1.33,2.165c1.391,0.955,2.919,1.648,4.501,2.199
		c3.144,1.095,6.299,2.14,9.75,3.308c-1.102,0.933-2.255,1.229-3.313,1.482c-5.805,1.393-8.255,5.539-9.296,10.952
		c-1.817,9.461,5.79,19.599,15.099,20.163c4.643,0.281,8.333-1.492,11.314-4.933c1.227-1.413,2.139-3.043,3.052-4.663
		c0.614-0.351,0.818-0.911,0.81-1.58c0.285-0.545,0.609-1.078,0.562-1.729c0.096-0.251,0.174-0.515,0.26-0.771
		c-0.026,0.271-0.122,0.521-0.214,0.781c-0.018,0.624-0.207,1.19-0.561,1.701c-0.156,0.731-0.064,1.49-0.242,2.22
		c5.453,1.906,10.828-1.082,12.188-6.763c0.794-3.313,0.687-6.669,0.4-10.017c-0.214-2.504-0.294-2.582,2.091-3.201
		c9.399-2.447,18.492-5.75,27.349-9.715c2.984-1.334,5.892-2.82,8.644-4.578c4.316-2.759,8.537-5.673,13.043-8.136
		c4.442-2.43,6.384-6.34,6.483-11.287c0.039-1.973-0.113-2.149-2.095-2.489c-2.501-0.427-4.997-0.479-7.513-0.081
		c-1.552,0.244-3.116,0.444-4.741,0.313c0.077-0.996,0.824-1.017,1.374-1.149c2.901-0.704,5.824-1.265,8.836-1.192
		c0.84,0.021,1.684,0.017,2.514-0.069c0.914-0.094,1.287-0.604,1.018-1.552c-1.808-6.367-3.566-12.787-6.979-18.512
		c-2.233-3.754-5.354-6.716-9.951-7.529c-0.548-0.097-1.119-0.253-1.655-0.186c-7.394,0.941-13.714,3.594-17.001,10.913
		c-0.762,1.696-2.052,2.866-3.493,3.914c-7.307,5.309-9.229,12.439-7.23,20.97c1.316,5.63,4.358,10.229,8.24,14.383
		c1.313,1.404,2.748,2.734,3.801,4.593c-1.321,0.779-2.54,0.532-3.67,0.391c-4.002-0.5-7.857-1.496-11.417-3.496
		c-1.351-0.761-2.688-1.622-4.459-1.107c-0.795,0.231-1.593-0.436-2.229-0.985c-0.49-0.424-1.016-0.875-1.326-1.429
		c-4.093-7.238-7.513-14.864-6.137-23.324c1.453-8.931,3.983-17.719,10.023-24.849c5.98-7.058,13.554-10.949,23.058-10.353
		c0.178,0.012,0.365-0.043,0.543-0.093c0.066-0.02,0.12-0.106,0.365-0.342c-0.967-1.09-2.14-1.951-3.31-2.81
		c-5.871-4.304-12.479-7.013-19.44-8.956c-3.335-0.934-3.471-1.122-2.182-4.353c0.725-1.812,1.712-3.514,2.563-5.275
		c0.524-1.091,1.107-2.167,1.492-3.31c0.73-2.167,0.52-4.178-1.114-5.979c-2.266-2.5-4.709-4.771-7.492-6.689
		c-5.534-3.812-11.689-4.652-18.173-3.831c-4.362,0.552-8.59,1.606-12.533,3.677c-7.622,3.998-11.175,10.875-10.719,19.619
		c0.073,1.405,0.71,2.004,1.989,2.194c1.287,0.197,2.593,0.353,3.849,0.682c1.809,0.475,2.159,0.97,1.809,2.794
		c-0.464,2.413-0.411,4.834-0.254,7.248c0.185,2.838,1.371,4.94,4.479,5.614c1.994,0.435,3.955,1.104,5.854,1.855
		c3.963,1.569,6.767,4.229,7.539,8.624c0.19,1.919,0.479,3.818,0.756,5.36c-0.669-1.22,0.123-3.344-1.395-4.681
		c-1.115-3.112-3.396-4.982-6.369-6.24c-3.829-1.617-7.81-2.514-11.935-2.513c-6.82,0.001-12.304,2.979-16.159,8.476
		c-6.052,8.623-6.938,17.937-2.323,27.453c2.118,4.372,4.035,8.772,5.361,13.438c0.329,1.161,0.707,2.314,1.17,3.429
		c1.64,3.951,4.441,6.531,8.715,7.474c4.119,0.911,8.26,1.323,12.469,1.044C662.209,1123.389,662.401,1123.432,662.781,1124.26z"/>
	<path fill="#F7941E" d="M628.676,1125.114c-0.665-0.049-1.212-0.104-1.757-0.126c-1.696-0.061-2.706-0.912-3.29-2.515
		c-1.443-3.96-2.438-8.004-2.734-12.216c-0.586-8.268,1.325-16.091,4.214-23.738c1.383-3.656,2.789-7.307,4.271-10.925
		c2.174-5.313,3.326-10.862,3.741-16.549c0.292-3.985,0.778-7.983,0.438-11.997c-0.191-2.263-0.229-2.261-2.402-2.128
		c-1.959,0.119-1.96,0.119-2.363-1.772c-0.098-0.456-0.163-0.918-0.265-1.369c-1.946-8.683-7.138-13.831-16.104-15.096
		c-16.264-2.295-27.312,7.322-30.936,18.972c-1.351,4.337-1.494,8.792-1.178,13.277c0.045,0.65,0.211,1.304,0.182,1.947
		c-0.119,2.803,0.662,5.163,2.505,7.414c2.49,3.042,3.077,6.613,1.954,10.524c-2.197,7.646-6.109,14.144-12.192,19.313
		c-0.659,0.563-2.317,0.957-0.747,2.382c0.322,0.294-0.343,0.766-0.62,1.093c-4.278,5.103-4.1,10.55-1.167,16.142
		c2.077,3.961,5.198,7.01,8.819,9.575c14.565,10.322,34.003,10.13,48.335-0.492C627.875,1126.464,628.568,1126.245,628.676,1125.114
		z"/>
	<path fill="#F7941E" d="M564.986,1099.844c-1.208,0.063-2.094,0.07-2.969,0.159c-0.839,0.085-1.664,0.12-2.501-0.036
		c-2.27-0.422-2.647-0.978-2.042-3.244c1.057-3.955,2.012-7.931,2.713-11.966c0.782-4.504,1.216-9.023,0.971-13.612
		c-0.152-2.77-1.145-5.021-3.277-6.814c-1.996-1.675-3.915-3.441-5.896-5.136c-0.487-0.417-1.037-0.854-1.634-1.036
		c-7.47-2.284-14.919-4.712-22.816-5.022c-1.482-0.059-2.992-0.006-4.455,0.219c-3.659,0.555-5.336,2.688-5.155,6.365
		c0.11,2.28,0.958,4.354,1.892,6.385c1.519,3.311,3.313,6.482,5.521,9.365c2.78,3.632,3.879,7.777,4.331,12.187
		c0.2,1.943,0.43,3.897,0.42,5.848c-0.023,4.189,1.61,7.816,3.733,11.23c3.026,4.865,7.17,6.329,12.743,4.785
		c1.802-0.498,3.531-1.185,5.188-2.033c3.643-1.873,7.263-3.785,10.874-5.713C563.405,1101.355,564.29,1101.013,564.986,1099.844z"
		/>
	<path fill="#FDE7CC" d="M669.644,1071.219c0.387,1.734,0.384,3.576,1.491,5.495c0.393-2.411,0.097-4.338-0.853-6.176
		C670.069,1070.766,669.857,1070.992,669.644,1071.219z"/>
	<path fill="#FDE0BE" d="M662.781,1124.26c0.304-0.184,0.811-0.313,0.872-0.557c0.122-0.483-0.359-0.503-0.712-0.47
		c-0.813,0.079-1.661,0.013-2.369,0.548C661.283,1124.051,662.159,1123.575,662.781,1124.26z"/>
	<path fill="#FCE0BE" d="M675.815,1154.096c-0.189,0.56-0.383,1.115-0.576,1.673c0.205,0.206,0.41,0.414,0.614,0.622
		c0.559-0.692,0.488-1.524,0.524-2.336C676.174,1153.836,675.985,1153.838,675.815,1154.096z"/>
	<path fill="#F9AA4D" d="M676.918,1152.379c0.572-0.482,0.654-1.057,0.283-1.85c-0.58,0.546-0.881,1.127-0.867,1.869
		C676.538,1152.659,676.731,1152.64,676.918,1152.379z"/>
	<path fill="#FBC586" d="M676.918,1152.379c-0.194,0.007-0.389,0.014-0.584,0.021c-0.173,0.565-0.346,1.133-0.519,1.696
		c0.188-0.014,0.377-0.026,0.563-0.041C677.005,1153.64,676.859,1152.976,676.918,1152.379z"/>
</g>
<ellipse fill="none" stroke="#F7941E" stroke-width="4" stroke-miterlimit="10" cx="732.585" cy="991.548" rx="14.07" ry="13.641"/>
<ellipse fill="none" stroke="#F7941E" stroke-width="4" stroke-miterlimit="10" cx="675.873" cy="886.637" rx="25.275" ry="25.507"/>
<ellipse fill="none" stroke="#F7941E" stroke-width="5" stroke-miterlimit="10" cx="684.052" cy="556.535" rx="6.625" ry="7.543"/>
<ellipse fill="none" stroke="#F7941E" stroke-width="5" stroke-miterlimit="10" cx="735.354" cy="474.336" rx="16.839" ry="15.073"/>
<ellipse fill="none" stroke="#F7941E" stroke-width="5" stroke-miterlimit="10" cx="652.895" cy="463.813" rx="2.298" ry="1.421"/>
<ellipse fill="none" stroke="#F7941E" stroke-width="4" stroke-miterlimit="10" cx="642.873" cy="383.637" rx="25.275" ry="25.507"/>
</svg>
